  <svg viewBox="0 0 512 512" width="512" height="512" xmlns="http://www.w3.org/2000/svg" role="img" aria-label="Homer talking avatar">

<defs>
  <radialGradient id="bgGlow" cx="50%" cy="40%" r="70%">
    <stop offset="0%" stop-color="#2a2634"/>
    <stop offset="55%" stop-color="#141420"/>
    <stop offset="100%" stop-color="#080911"/>
  </radialGradient>
  <filter id="softShadow" x="-20%" y="-20%" width="140%" height="150%">
    <feDropShadow dx="0" dy="14" stdDeviation="14" flood-color="#000000" flood-opacity="0.45"/>
  </filter>
  <filter id="lineShadow" x="-20%" y="-20%" width="140%" height="140%">
    <feDropShadow dx="0" dy="3" stdDeviation="2" flood-color="#000000" flood-opacity="0.25"/>
  </filter>
</defs>

    <rect width="512" height="512" rx="56" fill="url(#bgGlow)"/>

    <g filter="url(#softShadow)">
      <path d="M137 453 C151 392 197 360 257 360 C317 360 364 392 378 453 L394 512 L121 512 Z" fill="#ffffff"/>
      <path d="M172 428 C201 399 230 386 257 386 C284 386 313 399 342 428 L324 512 L190 512 Z" fill="#d5e7ef" opacity="0.45"/>
      <path d="M204 391 L256 453 L309 391" fill="#ffffff" stroke="#d6d6d6" stroke-width="6" stroke-linejoin="round"/>
    </g>

    <g filter="url(#softShadow)">
      <path d="M143 167 C143 87 190 45 258 45 C326 45 371 91 373 175 C374 222 363 258 373 302 C384 353 341 426 258 426 C175 426 128 354 140 299 C149 255 143 212 143 167 Z" fill="#ffd840" stroke="#2a2118" stroke-width="9"/>
      <path d="M175 136 C187 74 228 52 270 56 C215 74 189 117 186 191 C183 253 196 300 172 359 C148 311 153 250 151 196 C150 173 156 152 175 136 Z" fill="#fff078" opacity="0.28"/>
      <path d="M139 250 C106 246 94 286 117 310 C132 326 153 319 160 300" fill="#ffd840" stroke="#2a2118" stroke-width="8"/>
      <path d="M373 250 C406 246 418 286 395 310 C380 326 359 319 352 300" fill="#ffd840" stroke="#2a2118" stroke-width="8"/>
      <path d="M116 278 C128 271 140 278 145 292" stroke="#856022" stroke-width="5" fill="none" stroke-linecap="round"/>
      <path d="M396 278 C384 271 372 278 367 292" stroke="#856022" stroke-width="5" fill="none" stroke-linecap="round"/>
      <path d="M214 74 C229 42 256 42 273 72" stroke="#2a2118" stroke-width="7" fill="none" stroke-linecap="round"/>
      <path d="M251 68 C267 39 297 47 307 82" stroke="#2a2118" stroke-width="7" fill="none" stroke-linecap="round"/>
      <path d="M153 205 C134 188 128 166 139 146" stroke="#2a2118" stroke-width="6" fill="none" stroke-linecap="round"/>
      <path d="M359 205 C378 188 384 166 373 146" stroke="#2a2118" stroke-width="6" fill="none" stroke-linecap="round"/>
    </g>

    <g filter="url(#lineShadow)">
      <ellipse cx="223" cy="226" rx="44" ry="52" fill="#ffffff" stroke="#2a2118" stroke-width="7"/>
      <ellipse cx="292" cy="226" rx="44" ry="52" fill="#ffffff" stroke="#2a2118" stroke-width="7"/>
      <circle cx="233" cy="235" r="8.5" fill="#111111"/>
      <circle cx="282" cy="235" r="8.5" fill="#111111"/>
      <circle cx="236" cy="232" r="2.5" fill="#ffffff"/>
      <circle cx="285" cy="232" r="2.5" fill="#ffffff"/>
      <path d="M263 257 C286 259 303 273 300 293 C296 318 259 318 243 306 C225 292 235 262 263 257 Z" fill="#ffd840" stroke="#2a2118" stroke-width="7"/>
      <path d="M205 319 C226 335 292 335 317 318" stroke="#6f6242" stroke-width="5" fill="none" opacity="0.42" stroke-linecap="round"/>
      <circle cx="209" cy="333" r="3.1" fill="#6c6c5d" opacity="0.42"/>
      <circle cx="226" cy="343" r="3.1" fill="#6c6c5d" opacity="0.42"/>
      <circle cx="244" cy="337" r="3.1" fill="#6c6c5d" opacity="0.42"/>
      <circle cx="283" cy="337" r="3.1" fill="#6c6c5d" opacity="0.42"/>
      <circle cx="302" cy="347" r="3.1" fill="#6c6c5d" opacity="0.42"/>
      <circle cx="320" cy="335" r="3.1" fill="#6c6c5d" opacity="0.42"/>
      <circle cx="215" cy="369" r="3.1" fill="#6c6c5d" opacity="0.42"/>
      <circle cx="235" cy="385" r="3.1" fill="#6c6c5d" opacity="0.42"/>
      <circle cx="290" cy="383" r="3.1" fill="#6c6c5d" opacity="0.42"/>
      <circle cx="312" cy="366" r="3.1" fill="#6c6c5d" opacity="0.42"/>
      <circle cx="252" cy="401" r="3.1" fill="#6c6c5d" opacity="0.42"/>
      <circle cx="276" cy="404" r="3.1" fill="#6c6c5d" opacity="0.42"/>

      <ellipse cx="264" cy="364" rx="42" ry="50" fill="#3a1711" stroke="#6b4b25" stroke-width="8"/>
      <ellipse cx="265" cy="390" rx="28" ry="15" fill="#d17762" opacity="0.92"/>
      <ellipse cx="250" cy="348" rx="11" ry="15" fill="#ffffff" opacity="0.18"/>

      <path d="M216 414 C246 432 290 430 318 410" stroke="#8c6423" stroke-width="5" fill="none" opacity="0.28" stroke-linecap="round"/>
    </g>

  </svg>
